<svg width="316" height="87" viewBox="0 0 316 87" fill="none" xmlns="http://www.w3.org/2000/svg">
<g filter="url(#filter0_i_23834_2)">
<path d="M147.056 57.504H149.648C150 57.504 150.344 57.54 150.68 57.612C151.016 57.684 151.316 57.804 151.58 57.972C151.844 58.132 152.056 58.344 152.216 58.608C152.384 58.872 152.468 59.2 152.468 59.592C152.468 60.088 152.332 60.5 152.06 60.828C151.796 61.148 151.436 61.376 150.98 61.512V61.536C151.252 61.56 151.504 61.632 151.736 61.752C151.976 61.864 152.18 62.012 152.348 62.196C152.524 62.38 152.66 62.596 152.756 62.844C152.852 63.084 152.9 63.344 152.9 63.624C152.9 64.096 152.8 64.484 152.6 64.788C152.408 65.092 152.152 65.336 151.832 65.52C151.52 65.696 151.164 65.82 150.764 65.892C150.372 65.964 149.98 66 149.588 66H147.056V57.504ZM148.064 61.104H149.456C149.696 61.104 149.928 61.088 150.152 61.056C150.384 61.024 150.592 60.96 150.776 60.864C150.96 60.76 151.108 60.62 151.22 60.444C151.332 60.26 151.388 60.02 151.388 59.724C151.388 59.46 151.336 59.248 151.232 59.088C151.128 58.92 150.988 58.788 150.812 58.692C150.644 58.596 150.448 58.532 150.224 58.5C150.008 58.46 149.788 58.44 149.564 58.44H148.064V61.104ZM148.064 65.064H149.768C150.016 65.064 150.26 65.04 150.5 64.992C150.748 64.936 150.968 64.852 151.16 64.74C151.36 64.62 151.52 64.468 151.64 64.284C151.76 64.092 151.82 63.86 151.82 63.588C151.82 63.292 151.76 63.044 151.64 62.844C151.528 62.644 151.376 62.484 151.184 62.364C151 62.244 150.784 62.16 150.536 62.112C150.296 62.064 150.048 62.04 149.792 62.04H148.064V65.064ZM158.511 67.284C158.415 67.524 158.315 67.74 158.211 67.932C158.115 68.132 157.995 68.3 157.851 68.436C157.715 68.58 157.547 68.688 157.347 68.76C157.155 68.84 156.919 68.88 156.639 68.88C156.503 68.88 156.359 68.872 156.207 68.856C156.063 68.84 155.927 68.8 155.799 68.736L155.919 67.92C156.015 67.96 156.115 67.984 156.219 67.992C156.323 68.008 156.443 68.016 156.579 68.016C156.883 68.016 157.107 67.932 157.251 67.764C157.395 67.596 157.519 67.372 157.623 67.092L158.007 66.036L155.679 60.384H156.771L158.511 64.788H158.535L160.203 60.384H161.223L158.511 67.284Z" fill="black"/>
<path d="M176.968 65.424C176.48 65.696 175.964 65.896 175.42 66.024C174.884 66.152 174.34 66.216 173.788 66.216C173.124 66.216 172.516 66.108 171.964 65.892C171.412 65.676 170.932 65.372 170.524 64.98C170.124 64.588 169.812 64.12 169.588 63.576C169.364 63.024 169.252 62.416 169.252 61.752C169.252 61.08 169.368 60.472 169.6 59.928C169.84 59.376 170.168 58.908 170.584 58.524C171 58.132 171.484 57.828 172.036 57.612C172.588 57.396 173.184 57.288 173.824 57.288C174.384 57.288 174.92 57.372 175.432 57.54C175.952 57.708 176.416 57.996 176.824 58.404L176.068 59.196C175.78 58.884 175.428 58.644 175.012 58.476C174.604 58.308 174.184 58.224 173.752 58.224C173.264 58.224 172.812 58.312 172.396 58.488C171.98 58.664 171.616 58.908 171.304 59.22C171 59.532 170.76 59.904 170.584 60.336C170.416 60.768 170.332 61.24 170.332 61.752C170.332 62.256 170.416 62.724 170.584 63.156C170.76 63.588 171 63.964 171.304 64.284C171.616 64.596 171.988 64.84 172.42 65.016C172.852 65.192 173.328 65.28 173.848 65.28C174.192 65.28 174.552 65.24 174.928 65.16C175.304 65.072 175.648 64.948 175.96 64.788V62.184H174.004V61.248H176.968V65.424ZM183.843 57.504H184.791L188.403 66H187.227L186.363 63.912H182.115L181.239 66H180.099L183.843 57.504ZM184.299 58.8H184.275L182.511 62.976H185.979L184.299 58.8ZM191.533 57.504H193.705C194.113 57.504 194.517 57.528 194.917 57.576C195.325 57.624 195.689 57.728 196.009 57.888C196.329 58.048 196.589 58.284 196.789 58.596C196.989 58.9 197.089 59.316 197.089 59.844C197.089 60.468 196.901 60.972 196.525 61.356C196.149 61.74 195.629 61.984 194.965 62.088L197.377 66H196.141L193.837 62.184H192.541V66H191.533V57.504ZM192.541 61.248H193.441C193.721 61.248 194.009 61.24 194.305 61.224C194.609 61.208 194.885 61.156 195.133 61.068C195.389 60.98 195.597 60.844 195.757 60.66C195.925 60.468 196.009 60.196 196.009 59.844C196.009 59.54 195.949 59.296 195.829 59.112C195.709 58.928 195.549 58.788 195.349 58.692C195.157 58.588 194.937 58.52 194.689 58.488C194.449 58.456 194.205 58.44 193.957 58.44H192.541V61.248ZM200.869 57.504H202.141L207.061 64.56H207.085V57.504H208.093V66H206.821L201.901 58.944H201.877V66H200.869V57.504ZM212.208 57.504H217.548V58.44H213.216V61.104H217.26V62.04H213.216V65.064H217.764V66H212.208V57.504ZM227.022 58.44H224.214V66H223.206V58.44H220.398V57.504H227.022V58.44ZM235.552 57.504H236.56V65.064H240.448V66H235.552V57.504ZM246.312 57.504H247.26L250.872 66H249.696L248.832 63.912H244.584L243.708 66H242.568L246.312 57.504ZM246.768 58.8H246.744L244.98 62.976H248.448L246.768 58.8ZM254.001 57.504H255.273L260.193 64.56H260.217V57.504H261.225V66H259.953L255.033 58.944H255.009V66H254.001V57.504ZM265.341 57.504H270.681V58.44H266.349V61.104H270.393V62.04H266.349V65.064H270.897V66H265.341V57.504ZM274.454 57.504H279.794V58.44H275.462V61.104H279.506V62.04H275.462V65.064H280.01V66H274.454V57.504Z" fill="#009278"/>
</g>
<path fill-rule="evenodd" clip-rule="evenodd" d="M74.8834 0.857723C74.5441 1.32966 73.7527 3.01309 73.1248 4.5993L71.9836 7.48277L73.7199 13.4651C74.675 16.7553 75.4562 19.5111 75.4562 19.5892C75.4562 19.6674 73.5651 19.6487 71.2533 19.5481C58.8128 19.0052 47.7927 25.0604 42.2226 35.4998C36.4457 46.3269 38.2997 59.6834 46.8254 68.6624C49.0082 70.9611 54.0258 74.7172 54.9137 74.7172C55.4251 74.7172 59.8176 70.992 59.8176 70.5586C59.8176 70.4015 58.8937 69.8575 57.765 69.3501C56.5003 68.7813 54.5802 67.3297 52.7634 65.5681C48.0671 61.0153 46.1338 56.5685 46.1338 50.3197C46.1338 44.5086 48.0026 39.8757 52.0503 35.6534C56.1808 31.3446 61.7087 28.9384 67.6369 28.8687C75.4573 28.7768 82.1264 32.1497 86.3778 38.3474C91.87 46.3544 91.3993 56.3977 85.1748 64.0204C83.2199 66.4148 79.0531 69.3467 75.959 70.5052C73.8173 71.3073 73.5756 71.536 71.4206 74.8056L69.1444 78.259L71.6337 78.0105C75.3264 77.6414 79.5359 76.3911 83.0694 74.6135C87.4819 72.3937 93.0125 67.0011 95.289 62.6988C100.247 53.3286 100.001 42.7256 94.6205 33.8949C92.8068 30.9184 89.1958 26.9733 86.8082 25.36C85.9403 24.7737 85.2311 24.1885 85.2319 24.0597C85.2326 23.9308 87.96 22.4868 91.293 20.8503C97.9566 17.5784 97.8018 17.7286 99.3359 13.0515C100.128 10.6361 100.172 10.2145 99.6768 9.75021C99.0337 9.14713 76.8531 0 76.0329 0C75.74 0 75.2228 0.385785 74.8834 0.857723ZM8.88936 23.4139C3.99996 28.3243 0 32.5988 0 32.9125C0 33.7649 4.24822 38.3943 5.42737 38.827C5.99036 39.0336 9.25179 39.3885 12.6747 39.6157C16.098 39.8433 18.9528 40.082 19.0189 40.1464C19.0849 40.2108 18.3476 41.797 17.3799 43.6714C15.0361 48.2128 14.0739 52.0836 14.0775 56.9566C14.0833 65.3425 17.2185 72.5329 23.3253 78.1679C26.1747 80.7971 27.2925 81.5618 30.7728 83.2651C36.6154 86.1241 44.4941 86.9426 51.1636 85.3838C60.2852 83.2513 68.2171 76.5119 71.8085 67.842C76.0497 57.6043 73.8227 45.6263 66.1348 37.3205L64.0459 35.0641L61.7857 36.239C60.5424 36.8847 58.9852 37.9586 58.3253 38.625L57.125 39.8365L59.3297 41.5519C61.9421 43.5849 64.7973 47.5228 66.0445 50.8138C67.154 53.7399 67.552 59.4345 66.8714 62.6324C65.6136 68.5393 60.8529 74.5818 55.4185 77.1687C46.1815 81.566 36.8027 80.1178 29.7067 73.1988C22.7983 66.4625 21.2098 57.2635 25.444 48.5105C26.3885 46.5572 27.5161 45.1421 30.114 42.6483C32.5869 40.2748 33.6167 39.0031 33.8184 38.0737C33.9721 37.3658 34.6946 35.2192 35.4241 33.3033C37.0787 28.9582 37.1045 28.4939 35.6755 28.8267C33.5068 29.3322 29.4776 30.936 28.0157 31.8756C27.1896 32.4067 26.4585 32.7856 26.3909 32.7174C26.3233 32.6491 25.9749 30.1061 25.6164 27.0659C25.2583 24.0258 24.7891 20.9833 24.5741 20.3048C24.1464 18.9564 19.384 14.486 18.3753 14.486C18.0469 14.486 13.7784 18.5036 8.88936 23.4139Z" fill="url(#paint0_linear_23834_2)"/>
<path d="M141.05 43.84C139.22 44.86 137.285 45.61 135.245 46.09C133.235 46.57 131.195 46.81 129.125 46.81C126.635 46.81 124.355 46.405 122.285 45.595C120.215 44.785 118.415 43.645 116.885 42.175C115.385 40.705 114.215 38.95 113.375 36.91C112.535 34.84 112.115 32.56 112.115 30.07C112.115 27.55 112.55 25.27 113.42 23.23C114.32 21.16 115.55 19.405 117.11 17.965C118.67 16.495 120.485 15.355 122.555 14.545C124.625 13.735 126.86 13.33 129.26 13.33C131.36 13.33 133.37 13.645 135.29 14.275C137.24 14.905 138.98 15.985 140.51 17.515L137.675 20.485C136.595 19.315 135.275 18.415 133.715 17.785C132.185 17.155 130.61 16.84 128.99 16.84C127.16 16.84 125.465 17.17 123.905 17.83C122.345 18.49 120.98 19.405 119.81 20.575C118.67 21.745 117.77 23.14 117.11 24.76C116.48 26.38 116.165 28.15 116.165 30.07C116.165 31.96 116.48 33.715 117.11 35.335C117.77 36.955 118.67 38.365 119.81 39.565C120.98 40.735 122.375 41.65 123.995 42.31C125.615 42.97 127.4 43.3 129.35 43.3C130.64 43.3 131.99 43.15 133.4 42.85C134.81 42.52 136.1 42.055 137.27 41.455V31.69H129.935V28.18H141.05V43.84ZM153.984 14.14H174.009V17.65H157.764V27.64H172.929V31.15H157.764V42.49H174.819V46H153.984V14.14ZM185.659 14.14H191.284L202.084 39.115H202.174L213.064 14.14H218.554V46H214.774V19.27H214.684L203.254 46H200.959L189.529 19.27H189.439V46H185.659V14.14ZM231.484 14.14H235.264V42.49H249.844V46H231.484V14.14ZM269.334 14.14H272.889L286.434 46H282.024L278.784 38.17H262.854L259.569 46H255.294L269.334 14.14ZM271.044 19H270.954L264.339 34.66H277.344L271.044 19ZM299.844 32.275L287.964 14.14H292.779L301.734 28.54L310.959 14.14H315.504L303.624 32.275V46H299.844V32.275Z" fill="#302F2F"/>
<rect x="173" y="76" width="80" height="4" rx="2" fill="#008C73"/>
<defs>
<filter id="filter0_i_23834_2" x="147.056" y="57.288" width="132.954" height="15.592" filterUnits="userSpaceOnUse" color-interpolation-filters="sRGB">
<feFlood flood-opacity="0" result="BackgroundImageFix"/>
<feBlend mode="normal" in="SourceGraphic" in2="BackgroundImageFix" result="shape"/>
<feColorMatrix in="SourceAlpha" type="matrix" values="0 0 0 0 0 0 0 0 0 0 0 0 0 0 0 0 0 0 127 0" result="hardAlpha"/>
<feOffset dy="4"/>
<feGaussianBlur stdDeviation="2"/>
<feComposite in2="hardAlpha" operator="arithmetic" k2="-1" k3="1"/>
<feColorMatrix type="matrix" values="0 0 0 0 0 0 0 0 0 0 0 0 0 0 0 0 0 0 0.25 0"/>
<feBlend mode="normal" in2="shape" result="effect1_innerShadow_23834_2"/>
</filter>
<linearGradient id="paint0_linear_23834_2" x1="50.4236" y1="23.7861" x2="50" y2="86.1627" gradientUnits="userSpaceOnUse">
<stop stop-color="#012433"/>
<stop offset="1" stop-color="#008C73"/>
</linearGradient>
</defs>
</svg>
