<svg width="26" height="26" viewBox="0 0 26 26" fill="none" xmlns="http://www.w3.org/2000/svg">
<path d="M6.85779 0.0988712C6.31228 0.276098 5.87068 0.667038 5.62131 1.19872C5.50701 1.44371 5.48623 1.55838 5.48623 1.95453C5.48623 2.40803 5.50701 2.48621 6.04732 4.16986C6.35904 5.12897 6.61881 5.94213 6.6292 5.97861C6.63959 6.00989 6.57205 6.08808 6.47853 6.15584C6.38502 6.21839 6.26033 6.33828 6.20838 6.42168C6.14603 6.51029 5.92783 6.66146 5.64209 6.80219C4.95111 7.15143 4.26014 7.66747 3.6315 8.3034C3.22627 8.70477 3.07041 8.83508 3.07041 8.76211C3.07041 8.57967 2.84701 8.37638 2.65478 8.37638C2.4158 8.37638 2.26514 8.56403 2.22357 8.91848C2.15603 9.48665 1.73002 9.90886 1.12217 10.0079C0.374043 10.1278 0.389629 10.7533 1.13775 10.8836C1.31959 10.9149 1.54299 10.9879 1.6417 11.0504L1.81834 11.1599L1.71963 11.4414C1.56377 11.9001 1.41311 12.6663 1.35596 13.3022C1.32998 13.6254 1.304 15.3091 1.304 17.0344C1.304 20.6206 1.33518 20.3548 0.836426 20.7926C0.618223 20.9855 0.483144 21.1627 0.358457 21.4129C0.202598 21.7205 0.187012 21.8091 0.187012 22.2052C0.187012 22.5753 0.207793 22.6952 0.327285 22.9454C0.493535 23.2999 0.83123 23.6543 1.14814 23.8107C1.45986 23.9567 3.04963 24.358 3.17432 24.3163C3.31459 24.2694 3.48603 24.0401 3.48603 23.8889C3.48603 23.6543 3.28861 23.5344 2.65478 23.3781C1.42869 23.0809 1.25205 22.9923 1.07541 22.5597C0.893574 22.1323 1.01307 21.7882 1.49103 21.3243C1.67287 21.1419 1.89107 20.876 1.969 20.7301L2.10928 20.459L2.14045 16.7842C2.16643 13.9121 2.1924 13.0364 2.24955 12.7705C2.3015 12.5203 2.34307 12.4369 2.40021 12.4526C2.83662 12.5829 3.00807 12.4682 3.0808 12.0095C3.18471 11.3319 3.57435 10.9566 4.26014 10.8628C4.92514 10.7741 4.88357 10.1174 4.20299 10.0079C3.90685 9.96099 3.62631 9.84631 3.56396 9.74728C3.51201 9.66388 3.91725 9.16868 4.43158 8.67871C5.00826 8.1366 6.08369 7.40685 6.08369 7.55801C6.08369 7.71439 6.50451 8.05841 6.94092 8.26692C8.44756 8.97582 10.1568 8.97582 11.6686 8.26692C12.0271 8.0949 12.1882 7.98544 12.3492 7.79779L12.5622 7.54759L12.9311 7.77172C14.0377 8.45457 14.7391 9.19996 15.6171 10.6438C15.7626 10.8784 16.0119 10.9462 16.199 10.8054C16.5055 10.5813 16.4431 10.3415 15.8665 9.46059C15.2119 8.47542 13.9546 7.33908 12.9311 6.82304C12.7545 6.73443 12.4895 6.52593 12.2973 6.33307L11.97 5.99946L12.1154 5.54076C12.1986 5.29056 12.2661 5.01951 12.2661 4.94653C12.2661 4.62857 11.8869 4.4357 11.6375 4.63378C11.5336 4.71197 11.4504 4.89441 11.2998 5.36875L11.1024 6.00467L10.8114 6.15063C10.6556 6.22882 10.4789 6.307 10.4166 6.32785L10.3075 6.35913L10.427 5.5147C10.5776 4.45134 10.5776 4.45134 10.4218 4.30018C10.2607 4.13338 10.0165 4.12816 9.85549 4.28975C9.75677 4.38879 9.72041 4.54517 9.59052 5.46257C9.45025 6.48944 9.43986 6.5155 9.32037 6.5155C9.25803 6.5155 9.20088 6.48944 9.20088 6.45295C9.20088 6.42168 9.12814 5.67629 9.03982 4.80058C8.93592 3.74244 8.85799 3.16384 8.80603 3.09087C8.66056 2.86152 8.28131 2.87194 8.13064 3.10129C8.05271 3.22118 8.05791 3.33064 8.1826 4.62335C8.25533 5.39481 8.33326 6.0985 8.34885 6.18711C8.38002 6.40604 8.33326 6.40604 7.87607 6.18711L7.5124 6.00989L6.90455 4.08125C6.54607 2.95534 6.2915 2.06921 6.2915 1.94932C6.2967 1.27691 6.99806 0.724377 7.65787 0.880753C7.79814 0.912027 8.05271 1.0267 8.21896 1.13095C8.94111 1.57402 9.66846 1.56881 10.4322 1.10489C10.8686 0.839052 11.1595 0.786926 11.5284 0.906815C11.97 1.05798 12.3181 1.52711 12.3181 1.9806C12.3181 2.05357 12.2349 2.3976 12.131 2.74684C11.9492 3.36192 11.944 3.38798 12.0271 3.5183C12.157 3.71637 12.3596 3.77892 12.5622 3.67988C12.7077 3.61212 12.7493 3.53915 12.9207 3.01268C13.0922 2.50706 13.1181 2.3559 13.1181 1.95453C13.1233 1.55838 13.1026 1.43849 12.9831 1.1935C12.7389 0.656614 12.2661 0.250036 11.6998 0.0832348C11.1751 -0.0731411 10.6088 0.0102596 10.136 0.312586C9.48662 0.729589 9.12295 0.729589 8.47353 0.312586C7.98517 0.00504684 7.3981 -0.0731411 6.85779 0.0988712ZM7.66826 7.00027C8.26572 7.26611 8.8372 7.37036 9.5126 7.33387C10.1412 7.29738 10.5205 7.20356 11.0712 6.95336C11.492 6.75528 11.6531 6.75528 11.7518 6.93772C11.8713 7.16186 11.7726 7.29217 11.3154 7.5111C10.6088 7.8447 10.1776 7.93853 9.30478 7.93853C8.44236 7.93853 8.01115 7.84991 7.31498 7.52152C6.79545 7.27654 6.69154 7.10452 6.92014 6.87517C7.05002 6.74486 7.11236 6.75528 7.66826 7.00027ZM2.86779 10.2477L3.06002 10.4353L2.85221 10.6334L2.64439 10.8315L2.44697 10.6334L2.24955 10.4353L2.44178 10.2477C2.54049 10.1434 2.6392 10.06 2.64959 10.06C2.66518 10.06 2.76389 10.1434 2.86779 10.2477Z" fill="#012433"/>
<path d="M14.8376 0.13025C14.7285 0.2345 14.7077 0.307476 14.7077 0.547252V0.833942H14.422C14.0739 0.833942 13.8765 0.985105 13.8765 1.25094C13.8765 1.51678 14.0739 1.66795 14.422 1.66795H14.7077V1.95464C14.7077 2.30388 14.8584 2.50195 15.1233 2.50195C15.3883 2.50195 15.539 2.30388 15.539 1.95464V1.66795H15.8247C16.1728 1.66795 16.3702 1.51678 16.3702 1.25094C16.3702 0.985105 16.1728 0.833942 15.8247 0.833942H15.539V0.547252C15.539 0.198012 15.3883 -6.38962e-05 15.1233 -6.38962e-05C15.0246 -6.38962e-05 14.9155 0.0468488 14.8376 0.13025Z" fill="#012433"/>
<path d="M22.7348 0.130207C22.6516 0.208395 22.6049 0.312645 22.6049 0.422108C22.6049 1.05804 21.997 1.6679 21.3632 1.6679C21.145 1.6679 20.9424 1.86598 20.9424 2.08491C20.9424 2.30383 21.145 2.50191 21.3632 2.50191C21.997 2.50191 22.6049 3.11178 22.6049 3.74771C22.6049 3.96663 22.8023 4.16992 23.0205 4.16992C23.2387 4.16992 23.4361 3.96663 23.4361 3.74771C23.4361 3.11178 24.044 2.50191 24.6778 2.50191C24.896 2.50191 25.0986 2.30383 25.0986 2.08491C25.0986 1.86598 24.896 1.6679 24.6778 1.6679C24.044 1.6679 23.4361 1.05804 23.4361 0.422108C23.4361 0.203182 23.2387 -0.000106812 23.0205 -0.000106812C22.9218 -0.000106812 22.8127 0.0468059 22.7348 0.130207ZM23.2283 1.90247L23.405 2.08491L23.2127 2.28298L23.0205 2.47585L22.8283 2.28298L22.6361 2.08491L22.8127 1.90247C22.9114 1.80343 23.0049 1.72003 23.0205 1.72003C23.0361 1.72003 23.1296 1.80343 23.2283 1.90247Z" fill="#012433"/>
<path d="M1.12226 0.964276C0.862491 1.21969 1.04433 1.66797 1.408 1.66797C1.62101 1.66797 1.82362 1.46468 1.82362 1.25097C1.82362 1.03725 1.62101 0.833963 1.408 0.833963C1.30929 0.833963 1.20019 0.880876 1.12226 0.964276Z" fill="#012433"/>
<path d="M18.5786 1.79826C18.4955 1.87645 18.4487 1.98591 18.4487 2.08495C18.4487 2.18399 18.4955 2.29345 18.5786 2.37164C18.6565 2.45504 18.7656 2.50195 18.8644 2.50195C18.9631 2.50195 19.0722 2.45504 19.1501 2.37164C19.2332 2.29345 19.28 2.18399 19.28 2.08495C19.28 1.98591 19.2332 1.87645 19.1501 1.79826C19.0722 1.71486 18.9631 1.66795 18.8644 1.66795C18.7656 1.66795 18.6565 1.71486 18.5786 1.79826Z" fill="#012433"/>
<path d="M15.2533 3.88314C15.1702 3.96132 15.1234 4.06557 15.1234 4.17504C15.1234 4.81097 14.5156 5.42083 13.8818 5.42083C13.6636 5.42083 13.4609 5.61891 13.4609 5.83784C13.4609 6.05676 13.6636 6.25484 13.8818 6.25484C14.5156 6.25484 15.1234 6.86471 15.1234 7.50064C15.1234 7.71956 15.3209 7.92285 15.5391 7.92285C15.7573 7.92285 15.9547 7.71956 15.9547 7.50064C15.9547 6.86471 16.5625 6.25484 17.1964 6.25484C17.4146 6.25484 17.6172 6.05676 17.6172 5.83784C17.6172 5.61891 17.4146 5.42083 17.1964 5.42083C16.5625 5.42083 15.9547 4.81097 15.9547 4.17504C15.9547 3.95611 15.7573 3.75282 15.5391 3.75282C15.4404 3.75282 15.3312 3.79974 15.2533 3.88314ZM15.7469 5.6554L15.9235 5.83784L15.7313 6.03591L15.5391 6.22878L15.3468 6.03591L15.1546 5.83784L15.3312 5.6554C15.43 5.55636 15.5235 5.47296 15.5391 5.47296C15.5546 5.47296 15.6482 5.55636 15.7469 5.6554Z" fill="#012433"/>
<path d="M2.36885 4.30017C2.25975 4.40442 2.23896 4.4774 2.23896 4.71717V5.00386H1.95322C1.60514 5.00386 1.40771 5.15503 1.40771 5.42087C1.40771 5.68671 1.60514 5.83787 1.95322 5.83787H2.23896V6.12456C2.23896 6.4738 2.38963 6.67188 2.65459 6.67188C2.91955 6.67188 3.07021 6.4738 3.07021 6.12456V5.83787H3.35596C3.70404 5.83787 3.90146 5.68671 3.90146 5.42087C3.90146 5.15503 3.70404 5.00386 3.35596 5.00386H3.07021V4.71717C3.07021 4.36793 2.91955 4.16986 2.65459 4.16986C2.55588 4.16986 2.44678 4.21677 2.36885 4.30017Z" fill="#012433"/>
<path d="M19.8254 4.30017C19.7163 4.40442 19.6955 4.4774 19.6955 4.71717V5.00386H19.4098C19.0617 5.00386 18.8643 5.15503 18.8643 5.42087C18.8643 5.68671 19.0617 5.83787 19.4098 5.83787H19.6955V6.12456C19.6955 6.4738 19.8462 6.67188 20.1111 6.67188C20.3761 6.67188 20.5268 6.4738 20.5268 6.12456V5.83787H20.8125C21.1606 5.83787 21.358 5.68671 21.358 5.42087C21.358 5.15503 21.1606 5.00386 20.8125 5.00386H20.5268V4.71717C20.5268 4.36793 20.3761 4.16986 20.1111 4.16986C20.0124 4.16986 19.9033 4.21677 19.8254 4.30017Z" fill="#012433"/>
<path d="M20.6878 7.56324C19.8981 7.71961 19.3267 8.02715 18.7344 8.62659C18.3551 9.0019 18.2201 9.18433 18.0434 9.53879C17.7317 10.1695 17.6486 10.5396 17.6434 11.2693C17.6434 11.8688 17.6434 11.8792 17.5395 11.801C17.1706 11.5248 16.6563 11.4414 16.2874 11.5977C16.1056 11.6759 11.9805 14.4646 11.7519 14.6679C11.5545 14.8451 11.383 15.2622 11.383 15.5749C11.383 15.8877 11.461 16.1066 11.6947 16.4454L11.8558 16.68H10.9103C9.77248 16.68 9.63221 16.7112 9.27893 17.0709C8.88408 17.4618 8.76979 17.9727 9.01916 18.2177C9.27373 18.4783 9.72053 18.2958 9.72053 17.931C9.72053 17.6651 9.91795 17.514 10.266 17.514H10.5518V17.8007C10.5518 18.1499 10.7024 18.348 10.9674 18.348C11.2324 18.348 11.383 18.1499 11.383 17.8007V17.514H11.7987H12.2143V17.8007C12.2143 18.1499 12.3649 18.348 12.6299 18.348C12.8949 18.348 13.0455 18.1499 13.0455 17.8007V17.514H13.4612H13.8768V17.8007C13.8768 18.1499 14.0274 18.348 14.2924 18.348C14.5574 18.348 14.708 18.1499 14.708 17.8007V17.514H14.9938C15.2328 17.514 15.3055 17.5348 15.4094 17.6443C15.5341 17.7642 15.5393 17.8059 15.5393 18.348C15.5393 18.8901 15.5341 18.9318 15.4094 19.0517L15.2847 19.182H13.6534C11.9753 19.182 11.8194 19.1976 11.5285 19.4009C11.383 19.4999 11.383 19.4999 11.2428 19.4009C11.1596 19.3488 11.0194 19.2758 10.9206 19.2445C10.6661 19.1559 5.47596 19.1559 5.17983 19.2445C4.89408 19.3279 4.46287 19.7606 4.37975 20.0473C4.30182 20.3183 4.29662 21.4025 4.37975 21.6371C4.41092 21.7361 4.48365 21.8769 4.53561 21.955C4.63432 22.101 4.63432 22.101 4.53561 22.2417C4.48365 22.3251 4.41092 22.4659 4.37975 22.5649C4.29662 22.7995 4.30182 23.8837 4.37975 24.1547C4.46287 24.4414 4.89408 24.8741 5.17983 24.9575C5.47596 25.0461 10.6661 25.0461 10.9206 24.9575C11.0194 24.9262 11.1596 24.8532 11.2428 24.8011C11.383 24.7021 11.383 24.7021 11.5285 24.8011C11.8142 24.9992 11.9805 25.02 13.4456 25.02H14.8691L14.9938 24.8897C15.1652 24.7229 15.1652 24.4831 14.9938 24.3163L14.8691 24.186H13.4612H12.0532L11.9285 24.0557C11.8038 23.9358 11.7987 23.8941 11.7987 23.352C11.7987 22.8099 11.8038 22.7682 11.9285 22.6483C12.0324 22.5388 12.1052 22.518 12.3442 22.518H12.6299V22.8047C12.6299 23.1539 12.7806 23.352 13.0455 23.352C13.3105 23.352 13.4612 23.1539 13.4612 22.8047V22.518H13.8768H14.2924V22.8047C14.2924 23.1539 14.4431 23.352 14.708 23.352C14.973 23.352 15.1237 23.1539 15.1237 22.8047V22.518H15.5393H15.9549V22.8047C15.9549 23.1539 16.1056 23.352 16.3705 23.352C16.6355 23.352 16.7861 23.1539 16.7861 22.8047V22.518H17.0719C17.3109 22.518 17.3836 22.5388 17.4875 22.6483C17.6122 22.7682 17.6174 22.8099 17.6174 23.352C17.6174 23.8941 17.6122 23.9358 17.4875 24.0557C17.368 24.1808 17.3265 24.186 16.7861 24.186C16.2458 24.186 16.2043 24.1912 16.0848 24.3163C16.0017 24.3945 15.9549 24.504 15.9549 24.603C15.9549 24.7021 16.0017 24.8115 16.0848 24.8897C16.2043 25.0148 16.2406 25.02 16.8017 25.02C17.4096 25.02 17.6434 24.9731 17.8928 24.8011C18.033 24.7021 18.033 24.7021 18.1785 24.8011C18.2564 24.8532 18.3967 24.9262 18.4954 24.9575C18.75 25.0461 23.9401 25.0461 24.2362 24.9575C24.522 24.8741 24.9532 24.4414 25.0363 24.1547C25.1142 23.8785 25.1194 22.8255 25.0363 22.5597C25.0051 22.445 24.8752 22.2365 24.7506 22.101C24.3713 21.6736 24.4336 21.684 21.3736 21.684H18.7032L18.5785 21.5537C18.4538 21.4338 18.4486 21.3921 18.4486 20.85C18.4486 20.3079 18.4538 20.2662 18.5785 20.1463C18.6824 20.0368 18.7552 20.016 18.9942 20.016H19.2799V20.3027C19.2799 20.6519 19.4306 20.85 19.6955 20.85C19.9605 20.85 20.1111 20.6519 20.1111 20.3027V20.016H20.5268H20.9424V20.3027C20.9424 20.6519 21.0931 20.85 21.358 20.85C21.623 20.85 21.7736 20.6519 21.7736 20.3027V20.016H22.1893H22.6049V20.3027C22.6049 20.6519 22.7556 20.85 23.0205 20.85C23.2855 20.85 23.4361 20.6519 23.4361 20.3027V20.016H23.7219C24.07 20.016 24.2674 20.1671 24.2674 20.433C24.2674 20.7979 24.7142 20.9803 24.9688 20.7197C25.2181 20.4747 25.1038 19.9639 24.709 19.5729C24.3869 19.2497 24.1843 19.182 23.5089 19.182H22.9945L23.0101 18.4783C23.0205 18.0821 23.0049 17.7068 22.979 17.6234C22.927 17.4827 22.9374 17.4671 23.0881 17.4045C23.3426 17.295 23.5972 17.0396 23.7271 16.7581C23.8362 16.534 23.8518 16.4193 23.8518 15.8772C23.8518 15.1527 23.7998 14.9338 23.5504 14.6419L23.3634 14.4229L23.5193 14.3135C24.6986 13.4638 25.2961 11.9835 25.0259 10.5709C24.9376 10.107 24.7142 9.52836 24.5427 9.32507C24.3661 9.11657 24.0648 9.11136 23.9089 9.30944C23.7738 9.48666 23.7738 9.59091 23.9089 9.86196C24.3661 10.7585 24.3765 11.7072 23.9401 12.5777C23.2127 14.032 21.4308 14.6054 19.9813 13.8496C19.576 13.6358 18.989 13.0468 18.776 12.6402C18.0226 11.1859 18.5941 9.39805 20.0436 8.66829C20.9112 8.23044 21.8568 8.24087 22.7504 8.69957C23.0205 8.83509 23.1244 8.83509 23.3011 8.69957C23.4985 8.54319 23.4933 8.24087 23.2855 8.06364C22.7971 7.65706 21.4983 7.40165 20.6878 7.56324ZM16.9836 12.4422C17.0459 12.4943 17.2122 12.708 17.3524 12.9217C17.6382 13.3387 17.6797 13.5264 17.5291 13.6984C17.4044 13.8339 13.3832 16.5757 13.1962 16.6435C12.9676 16.7321 12.8169 16.6226 12.5 16.1431C12.1312 15.5853 12.126 15.4394 12.474 15.1788L12.7026 15.0015L12.7962 15.1214C13.1183 15.5384 13.2793 15.6114 13.5027 15.4446C13.7729 15.2413 13.7781 15.0641 13.5183 14.6731L13.4196 14.5168L13.7521 14.2874L14.0898 14.0581L14.1781 14.1832C14.4587 14.5897 14.6872 14.6836 14.9366 14.4855C15.1185 14.3395 15.1185 14.0893 14.9314 13.8079C14.8535 13.688 14.8171 13.5837 14.8431 13.5577C14.9522 13.4638 15.425 13.1354 15.451 13.1354C15.4665 13.1354 15.5549 13.2397 15.6432 13.37C15.8874 13.7245 16.2354 13.7557 16.4017 13.443C16.5004 13.2501 16.464 13.0729 16.2822 12.8331C16.2095 12.7393 16.1627 12.6507 16.1679 12.6455C16.5316 12.3536 16.8017 12.291 16.9836 12.4422ZM18.6253 14.1675C18.4383 14.1779 18.272 14.1727 18.2616 14.1623C18.2512 14.1519 18.2876 14.032 18.3499 13.8913L18.459 13.6463L18.7136 13.8965L18.9734 14.1519L18.6253 14.1675ZM18.033 15.2986C18.033 15.6479 18.1837 15.846 18.4486 15.846C18.7136 15.846 18.8643 15.6479 18.8643 15.2986V15.0119H19.2799H19.6955V15.2986C19.6955 15.6479 19.8462 15.846 20.1111 15.846C20.3761 15.846 20.5268 15.6479 20.5268 15.2986V15.0119H20.9424H21.358V15.2986C21.358 15.6479 21.5087 15.846 21.7736 15.846C22.0386 15.846 22.1893 15.6479 22.1893 15.2986V15.0119H22.475C22.714 15.0119 22.7867 15.0328 22.8906 15.1423C23.0153 15.2622 23.0205 15.3039 23.0205 15.846C23.0205 16.3881 23.0153 16.4298 22.8906 16.5496L22.766 16.68H20.1111H17.4563L17.3317 16.5496C17.207 16.4298 17.2018 16.3881 17.2018 15.846C17.2018 15.3039 17.207 15.2622 17.3317 15.1423C17.4356 15.0328 17.5083 15.0119 17.7473 15.0119H18.033V15.2986ZM16.4381 16.6591C16.4588 16.68 16.3549 16.7634 16.2095 16.8468C15.9445 16.9875 15.9393 16.9875 15.8042 16.8937C15.5964 16.7477 15.4925 16.7217 15.0925 16.6852L14.7184 16.6539L15.5341 16.1014L16.3445 15.5436L16.3705 16.0805C16.3861 16.3776 16.4121 16.6383 16.4381 16.6591ZM17.2018 17.8007C17.2018 18.1499 17.3524 18.348 17.6174 18.348C17.8824 18.348 18.033 18.1499 18.033 17.8007V17.514H18.4486H18.8643V17.8007C18.8643 18.1499 19.0149 18.348 19.2799 18.348C19.5449 18.348 19.6955 18.1499 19.6955 17.8007V17.514H20.1111H20.5268V17.8007C20.5268 18.1499 20.6774 18.348 20.9424 18.348C21.2074 18.348 21.358 18.1499 21.358 17.8007V17.514H21.6438C21.8827 17.514 21.9555 17.5348 22.0594 17.6443C22.1841 17.7642 22.1893 17.8059 22.1893 18.348C22.1893 18.8901 22.1841 18.9318 22.0594 19.0517L21.9347 19.182H19.2799H16.6251L16.5004 19.0517C16.3757 18.9318 16.3705 18.8901 16.3705 18.348C16.3705 17.8059 16.3757 17.7642 16.5004 17.6443C16.6043 17.5348 16.677 17.514 16.916 17.514H17.2018V17.8007ZM5.9799 20.3027C5.9799 20.6519 6.13057 20.85 6.39553 20.85C6.66049 20.85 6.81115 20.6519 6.81115 20.3027V20.016H7.22678H7.6424V20.3027C7.6424 20.6519 7.79307 20.85 8.05803 20.85C8.32299 20.85 8.47365 20.6519 8.47365 20.3027V20.016H8.88928H9.3049V20.3027C9.3049 20.6519 9.45557 20.85 9.72053 20.85C9.98549 20.85 10.1362 20.6519 10.1362 20.3027V20.016H10.4219C10.6609 20.016 10.7336 20.0368 10.8375 20.1463C10.9622 20.2662 10.9674 20.3079 10.9674 20.85C10.9674 21.3921 10.9622 21.4338 10.8375 21.5537L10.7128 21.684H8.05803H5.40322L5.27854 21.5537C5.15385 21.4338 5.14865 21.3921 5.14865 20.85C5.14865 20.3079 5.15385 20.2662 5.27854 20.1463C5.38244 20.0368 5.45518 20.016 5.69416 20.016H5.9799V20.3027ZM12.6299 20.3027C12.6299 20.6519 12.7806 20.85 13.0455 20.85C13.3105 20.85 13.4612 20.6519 13.4612 20.3027V20.016H13.8768H14.2924V20.3027C14.2924 20.6519 14.4431 20.85 14.708 20.85C14.973 20.85 15.1237 20.6519 15.1237 20.3027V20.016H15.5393H15.9549V20.3027C15.9549 20.6519 16.1056 20.85 16.3705 20.85C16.6355 20.85 16.7861 20.6519 16.7861 20.3027V20.016H17.0719C17.3109 20.016 17.3836 20.0368 17.4875 20.1463C17.6122 20.2662 17.6174 20.3079 17.6174 20.85C17.6174 21.3921 17.6122 21.4338 17.4875 21.5537L17.3628 21.684H14.708H12.0532L11.9285 21.5537C11.8038 21.4338 11.7987 21.3921 11.7987 20.85C11.7987 20.3079 11.8038 20.2662 11.9285 20.1463C12.0324 20.0368 12.1052 20.016 12.3442 20.016H12.6299V20.3027ZM5.9799 22.8047C5.9799 23.1539 6.13057 23.352 6.39553 23.352C6.66049 23.352 6.81115 23.1539 6.81115 22.8047V22.518H7.22678H7.6424V22.8047C7.6424 23.1539 7.79307 23.352 8.05803 23.352C8.32299 23.352 8.47365 23.1539 8.47365 22.8047V22.518H8.88928H9.3049V22.8047C9.3049 23.1539 9.45557 23.352 9.72053 23.352C9.98549 23.352 10.1362 23.1539 10.1362 22.8047V22.518H10.4219C10.6609 22.518 10.7336 22.5388 10.8375 22.6483C10.9622 22.7682 10.9674 22.8099 10.9674 23.352C10.9674 23.8941 10.9622 23.9358 10.8375 24.0557L10.7128 24.186H8.05803H5.40322L5.27854 24.0557C5.15385 23.9358 5.14865 23.8941 5.14865 23.352C5.14865 22.8099 5.15385 22.7682 5.27854 22.6483C5.38244 22.5388 5.45518 22.518 5.69416 22.518H5.9799V22.8047ZM19.2799 22.8047C19.2799 23.1539 19.4306 23.352 19.6955 23.352C19.9605 23.352 20.1111 23.1539 20.1111 22.8047V22.518H20.5268H20.9424V22.8047C20.9424 23.1539 21.0931 23.352 21.358 23.352C21.623 23.352 21.7736 23.1539 21.7736 22.8047V22.518H22.1893H22.6049V22.8047C22.6049 23.1539 22.7556 23.352 23.0205 23.352C23.2855 23.352 23.4361 23.1539 23.4361 22.8047V22.518H23.7219C23.9609 22.518 24.0336 22.5388 24.1375 22.6483C24.2622 22.7682 24.2674 22.8099 24.2674 23.352C24.2674 23.8941 24.2622 23.9358 24.1375 24.0557L24.0128 24.186H21.358H18.7032L18.5785 24.0557C18.4538 23.9358 18.4486 23.8941 18.4486 23.352C18.4486 22.8099 18.4538 22.7682 18.5785 22.6483C18.6824 22.5388 18.7552 22.518 18.9942 22.518H19.2799V22.8047Z" fill="#012433"/>
<path d="M20.8695 9.22603C20.5421 9.30943 20.0746 9.59091 19.846 9.8359C19.7317 9.961 19.5602 10.2216 19.4719 10.4145C19.3212 10.7325 19.3057 10.8106 19.3057 11.2641C19.3057 11.7333 19.3161 11.7802 19.4979 12.1555C19.7317 12.6298 20.033 12.9217 20.5162 13.1511C20.8331 13.3022 20.911 13.3179 21.3578 13.3179C21.8046 13.3179 21.8825 13.3022 22.1995 13.1511C22.6826 12.9217 22.9839 12.6298 23.2177 12.1555C23.3996 11.7802 23.41 11.7333 23.41 11.2589C23.41 10.7846 23.3996 10.7377 23.2177 10.3624C22.8645 9.65346 22.241 9.23124 21.4721 9.19476C21.2539 9.18433 20.9837 9.19997 20.8695 9.22603ZM21.7423 10.0705C22.028 10.1539 22.4592 10.5865 22.5423 10.8732C22.6878 11.3632 22.5839 11.7541 22.215 12.119C21.6903 12.6507 21.0253 12.6507 20.5006 12.119C19.9707 11.5925 19.9707 10.9253 20.5006 10.3989C20.8643 10.0288 21.2539 9.92972 21.7423 10.0705Z" fill="#012433"/>
<path d="M11.5129 10.1383C11.4038 10.2426 11.383 10.3155 11.383 10.5553V10.842H11.0973C10.7492 10.842 10.5518 10.9932 10.5518 11.259C10.5518 11.5248 10.7492 11.676 11.0973 11.676H11.383V11.9627C11.383 12.3119 11.5337 12.51 11.7986 12.51C12.0636 12.51 12.2143 12.3119 12.2143 11.9627V11.676H12.5C12.8481 11.676 13.0455 11.5248 13.0455 11.259C13.0455 10.9932 12.8481 10.842 12.5 10.842H12.2143V10.5553C12.2143 10.2061 12.0636 10.008 11.7986 10.008C11.6999 10.008 11.5908 10.0549 11.5129 10.1383Z" fill="#012433"/>
<path d="M6.9411 10.5553C6.68134 10.8108 6.86317 11.259 7.22685 11.259C7.43985 11.259 7.64247 11.0557 7.64247 10.842C7.64247 10.6283 7.43985 10.425 7.22685 10.425C7.12814 10.425 7.01903 10.4719 6.9411 10.5553Z" fill="#012433"/>
<path d="M6.10977 14.3082C6.02664 14.3864 5.97988 14.4906 5.97988 14.6001C5.97988 15.236 5.37203 15.8459 4.7382 15.8459C4.52 15.8459 4.31738 16.044 4.31738 16.2629C4.31738 16.4818 4.52 16.6799 4.7382 16.6799C5.37203 16.6799 5.97988 17.2898 5.97988 17.9257C5.97988 18.1446 6.1773 18.3479 6.39551 18.3479C6.61371 18.3479 6.81113 18.1446 6.81113 17.9257C6.81113 17.2898 7.41898 16.6799 8.05281 16.6799C8.27101 16.6799 8.47363 16.4818 8.47363 16.2629C8.47363 16.044 8.27101 15.8459 8.05281 15.8459C7.41898 15.8459 6.81113 15.236 6.81113 14.6001C6.81113 14.3812 6.61371 14.1779 6.39551 14.1779C6.2968 14.1779 6.18769 14.2248 6.10977 14.3082ZM6.60332 16.0804L6.77996 16.2629L6.58773 16.461L6.39551 16.6538L6.20328 16.461L6.01105 16.2629L6.18769 16.0804C6.28641 15.9814 6.37992 15.898 6.39551 15.898C6.41109 15.898 6.50461 15.9814 6.60332 16.0804Z" fill="#012433"/>
</svg>
