<svg width="21" height="23" viewBox="0 0 21 23" fill="none" xmlns="http://www.w3.org/2000/svg">
<path d="M9.78609 0.945103C7.97227 1.13762 6.38049 2.25274 5.56963 3.90543C5.2428 4.573 5.08562 5.18557 5.01825 6.07316L5.00328 6.26818H3.89303H2.78527L2.59566 6.33069C2.11912 6.49071 1.7873 6.87325 1.70247 7.3583C1.68251 7.46581 1.36814 10.5762 1.00139 14.2666C0.372661 20.6047 0.337732 20.9873 0.367671 21.1498C0.454994 21.6474 0.874145 22.0899 1.36814 22.2074C1.50786 22.2399 2.56322 22.2449 10.31 22.2449C20.0403 22.2449 19.2419 22.2574 19.5813 22.0799C19.7883 21.9699 20.0403 21.7124 20.1351 21.5173C20.2175 21.3473 20.2773 21.1173 20.2773 20.9698C20.2773 20.9073 20.1027 19.1196 19.8906 16.9944C19.6786 14.8691 19.3817 11.8888 19.232 10.3686C19.0823 8.84846 18.9475 7.51582 18.9326 7.40581C18.8976 7.14578 18.7704 6.88325 18.5858 6.68823C18.4086 6.50321 18.2514 6.4032 18.0194 6.32819C17.8323 6.26818 17.8198 6.26818 16.747 6.26818H15.6642L15.6517 6.16067C15.6442 6.10316 15.6342 5.95315 15.6268 5.83064C15.5868 5.15306 15.3648 4.39798 15.0105 3.73791C14.2595 2.34026 12.9422 1.34765 11.4203 1.03011C10.9363 0.927601 10.2701 0.895098 9.78609 0.945103ZM11.046 2.31775C12.8175 2.63529 14.2046 4.20796 14.3069 6.01065L14.3219 6.26818H10.335H6.34806L6.36303 5.98565C6.40045 5.31808 6.63997 4.6255 7.04664 4.00544C7.27119 3.6654 7.77267 3.16534 8.11448 2.93782C9.01266 2.34275 10.0081 2.13273 11.046 2.31775ZM5.01326 8.01087C5.02324 8.48092 5.05069 8.57844 5.21036 8.73845C5.35257 8.88097 5.46984 8.93097 5.68191 8.93097C5.89398 8.93097 6.01124 8.88097 6.15345 8.73845C6.31313 8.58094 6.33808 8.48092 6.35055 8.01087L6.36053 7.59333H10.3375H14.3144V7.94337C14.3144 8.13339 14.3269 8.34841 14.3419 8.41842C14.3793 8.59844 14.5015 8.76096 14.6637 8.85347C14.7835 8.92097 14.8234 8.93097 14.9881 8.93097C15.2101 8.92847 15.3274 8.87847 15.4721 8.71845C15.6268 8.54593 15.6442 8.48092 15.6567 8.01087L15.6667 7.59333L16.6422 7.59833L17.6202 7.60583L17.6626 8.06838C17.6876 8.32341 17.74 8.86347 17.7824 9.26851C17.9046 10.4736 17.982 11.2512 18.0319 11.7688C18.0993 12.4664 18.5434 16.8943 18.6307 17.7694C18.8128 19.5571 18.9301 20.7623 18.9301 20.8373V20.9198H10.31H1.68999V20.8623C1.68999 20.7948 2.98238 7.78585 3.00233 7.67334L3.01481 7.59333H4.0078H5.00328L5.01326 8.01087Z" fill="#012433"/>
<path d="M7.93938 10.296C7.31814 10.381 6.78921 10.6386 6.3476 11.0761C5.89103 11.5287 5.59413 12.0562 5.46689 12.6338C5.41449 12.8738 5.40701 13.4564 5.45441 13.6939C5.54173 14.144 5.76378 14.649 6.04821 15.0516C6.27026 15.3666 7.07862 16.1642 9.29912 18.2594C9.62097 18.5644 9.92037 18.8295 9.96278 18.852C10.1873 18.967 10.4343 18.952 10.6339 18.812C10.6938 18.767 11.1454 18.3744 11.6344 17.9344C13.5979 16.1742 14.0545 15.7141 14.4861 15.0691C15.035 14.2465 15.287 13.4689 15.2546 12.6938C15.2121 11.6637 14.7631 10.8786 14.0021 10.5036C13.6753 10.3435 13.4432 10.2885 13.079 10.2885C12.4353 10.286 12.1084 10.4486 11.083 11.2786C10.3844 11.8437 9.45381 12.7138 9.37148 12.8763C9.2118 13.1863 9.33904 13.5839 9.65091 13.7564C9.76318 13.8189 9.81308 13.8314 9.96029 13.8314C10.2123 13.8314 10.2996 13.7764 10.8285 13.2789C11.4697 12.6738 12.3479 11.9462 12.7097 11.7187C12.8295 11.6437 12.8744 11.6312 13.0316 11.6237C13.2362 11.6112 13.331 11.6362 13.5006 11.7437C13.8025 11.9362 13.9921 12.5263 13.9173 13.0488C13.8349 13.6139 13.5281 14.209 12.9916 14.8315C12.8045 15.0516 12.081 15.7441 11.3699 16.3842C10.7537 16.9393 10.337 17.3093 10.3021 17.3293C10.2796 17.3418 10.2223 17.3043 10.1274 17.2143C8.40843 15.5991 7.33311 14.554 7.17842 14.349C7.0412 14.1665 6.88152 13.8714 6.82164 13.6939C6.75428 13.4964 6.72683 13.2114 6.75428 13.0188C6.80667 12.6438 6.95637 12.3638 7.26574 12.0512C7.59757 11.7162 7.89447 11.6012 8.37599 11.6262C8.60054 11.6362 8.68038 11.6537 8.93736 11.7437C9.26919 11.8612 9.34653 11.8637 9.57357 11.7662C9.71578 11.7037 9.83304 11.5837 9.9029 11.4237C9.94282 11.3386 9.95031 11.2711 9.94282 11.1311C9.92785 10.8036 9.76318 10.6261 9.33156 10.4686C8.89744 10.311 8.33607 10.241 7.93938 10.296Z" fill="#012433"/>
</svg>
