<svg width="50" height="50" viewBox="0 0 50 50" fill="none" xmlns="http://www.w3.org/2000/svg">
<ellipse cx="25" cy="24.9667" rx="25" ry="24.9667" fill="#EDEDED"/>
<path fill-rule="evenodd" clip-rule="evenodd" d="M24.9971 12.0216C23.4423 12.1204 21.9855 12.6727 20.6889 13.655C20.3599 13.9042 19.5721 14.6859 19.3229 15.0104C18.2036 16.4675 17.6564 18.0566 17.6563 19.8495C17.6562 21.1304 17.9025 22.2059 18.4502 23.3164C18.7925 24.0103 19.1579 24.5508 19.6844 25.1417C20.1334 25.6455 20.8345 26.2255 21.4166 26.5746C21.5676 26.6652 21.6911 26.7432 21.6911 26.748C21.6911 26.7528 21.6121 26.7824 21.5154 26.8139C21.1701 26.9262 20.4737 27.212 20.0642 27.4095C18.0421 28.3846 16.286 29.8982 14.9951 31.7783C14.2986 32.7928 13.7329 34.0046 13.3758 35.247C13.165 35.9805 12.982 36.9396 13.0014 37.2085C13.0299 37.6009 13.3708 37.9202 13.761 37.9201C13.9502 37.92 14.0774 37.8702 14.2221 37.7397C14.4005 37.5788 14.4431 37.4753 14.531 36.9907C14.8624 35.1637 15.5659 33.5366 16.668 32.0489C17.9136 30.3674 19.7101 28.9843 21.6391 28.2217C25.3611 26.7502 29.4751 27.4942 32.6114 30.2058C34.6327 31.9535 36.0097 34.3829 36.4633 37.0018C36.5575 37.5459 36.6504 37.7118 36.9396 37.8532C37.3677 38.0623 37.8969 37.7748 37.9878 37.2837C38.0092 37.168 38.0039 37.0721 37.9605 36.7935C37.6841 35.018 37.0231 33.3051 36.0601 31.8693C34.496 29.5371 32.2438 27.7887 29.5999 26.8538L29.2957 26.7463L29.5734 26.5781C30.5979 25.9577 31.5833 24.9718 32.2105 23.9397C33.7885 21.343 33.7207 18.0404 32.0376 15.5173C31.6094 14.8755 30.93 14.1376 30.3582 13.6934C29.0424 12.6713 27.6068 12.1272 25.9466 12.0214C25.4978 11.9928 25.4488 11.9928 24.9971 12.0216ZM26.3508 13.3866C27.4853 13.5547 28.5793 14.0404 29.516 14.7917C30.8939 15.897 31.8262 17.5771 32.002 19.2714C32.0404 19.6419 32.0188 20.4437 31.9613 20.7813C31.7446 22.0536 31.1693 23.1793 30.2555 24.1189C29.0748 25.333 27.5669 26.0301 25.8911 26.1365C24.0274 26.2548 22.1805 25.5503 20.8265 24.2046C20.3197 23.7009 19.9094 23.128 19.5947 22.4845C19.2928 21.8672 19.1092 21.2678 19.0223 20.6159C18.9616 20.1606 18.9791 19.2917 19.0577 18.8579C19.4073 16.9283 20.5874 15.2494 22.3193 14.2174C23.126 13.7368 24.0076 13.4474 24.9711 13.3469C25.2712 13.3156 26.0163 13.3371 26.3508 13.3866Z" fill="#012433"/>
</svg>
