<svg width="21" height="21" viewBox="0 0 21 21" fill="none" xmlns="http://www.w3.org/2000/svg">
<path fill-rule="evenodd" clip-rule="evenodd" d="M0.987305 3.25209V5.5911H1.60971H2.23212V3.87583V2.16056H3.94373H5.65535V1.53682V0.913086H3.32133H0.987305V3.25209ZM16.2363 1.53682V2.16056H17.9479H19.6595V3.87583V5.5911H20.2819H20.9043V3.25209V0.913086H18.5703H16.2363V1.53682ZM3.3568 6.17585L3.39913 9.0996H6.27776H9.15638L9.20042 7.34535L9.24445 5.5911H9.78392H10.3234V6.7606V7.9301H10.9458H11.5682V6.7606V5.5911H10.9458H10.3234V4.96736C10.3234 4.35844 10.3105 4.34363 9.77879 4.34363C9.26017 4.34363 9.23418 4.31759 9.23418 3.79786V3.25209H6.27433H3.31448L3.3568 6.17585ZM10.353 3.83684C10.3987 4.39197 10.4287 4.42159 10.9458 4.42159C11.4629 4.42159 11.4929 4.39197 11.5386 3.83684L11.587 3.25209H10.9458H10.3046L10.353 3.83684ZM12.6929 6.17585L12.7352 9.0996L13.8633 9.14545L14.9914 9.19129V9.7302V10.2691H13.2892H11.587L11.5386 9.68435C11.4929 9.12923 11.4629 9.0996 10.9458 9.0996H10.4012V10.2691V11.4386L12.6963 11.4818L14.9914 11.5248V10.897V10.2691H15.6138H16.2363V10.8997V11.5303L17.3644 11.4845L18.4925 11.4386L18.5407 10.8539L18.5891 10.2691H17.4126H16.2363V9.7302V9.19129L17.3644 9.14545L18.4925 9.0996L18.5348 6.17585L18.5771 3.25209H15.6138H12.6506L12.6929 6.17585ZM7.98937 6.21483V7.9301H6.27776H4.56614V6.21483V4.49956H6.27776H7.98937V6.21483ZM17.3255 6.21483V7.9301H15.6138H13.9022V6.21483V4.49956H15.6138H17.3255V6.21483ZM5.68491 6.17585C5.73066 6.73097 5.76069 6.7606 6.27776 6.7606C6.79482 6.7606 6.82485 6.73097 6.8706 6.17585L6.91899 5.5911H6.27776H5.63652L5.68491 6.17585ZM15.021 6.17585C15.0668 6.73097 15.0968 6.7606 15.6138 6.7606C16.1309 6.7606 16.1609 6.73097 16.2067 6.17585L16.2551 5.5911H15.6138H14.9726L15.021 6.17585ZM3.35089 10.8539L3.39913 11.4386L4.52724 11.4845L5.65535 11.5303V12.0692C5.65535 12.5811 5.62812 12.6081 5.11074 12.6081C4.57905 12.6081 4.56614 12.6229 4.56614 13.2318C4.56614 13.8408 4.57905 13.8556 5.11074 13.8556H5.65535V14.9471V16.0387H5.11074C4.57905 16.0387 4.56614 16.0535 4.56614 16.6624V17.2861H3.9344H3.3025L3.35089 17.8709C3.39664 18.426 3.42667 18.4556 3.94373 18.4556C4.4608 18.4556 4.49083 18.426 4.53657 17.8709C4.58217 17.3201 4.61546 17.2861 5.11074 17.2861C5.60602 17.2861 5.63932 17.3201 5.68491 17.8709L5.73315 18.4556H8.61178H11.4904L11.5386 17.8709L11.587 17.2861H10.9551H10.3234V16.6624C10.3234 16.0535 10.3105 16.0387 9.77879 16.0387C9.2471 16.0387 9.23418 16.0535 9.23418 16.6624V17.2861H8.06717H6.90016V16.7404C6.90016 16.2206 6.92615 16.1946 7.44477 16.1946C7.97646 16.1946 7.98937 16.1798 7.98937 15.5708V14.9471H8.61178H9.23418V13.7776V12.6081H9.77879C10.3105 12.6081 10.3234 12.5933 10.3234 11.9844C10.3234 11.3755 10.3105 11.3606 9.77879 11.3606C9.2471 11.3606 9.23418 11.3755 9.23418 11.9844V12.6081H8.61178H7.98937V13.7776V14.9471H7.44477H6.90016V13.2387V11.5303L8.02827 11.4845L9.15638 11.4386L9.20462 10.8539L9.25301 10.2691H6.27776H3.3025L3.35089 10.8539ZM15.1025 11.4572C15.0414 11.5184 14.9914 11.8024 14.9914 12.0884V12.6081H13.2798H11.5682V13.2318C11.5682 13.8408 11.5811 13.8556 12.1128 13.8556C12.6314 13.8556 12.6574 13.8816 12.6574 14.4013C12.6574 14.9194 12.6302 14.9471 12.1221 14.9471C11.6161 14.9471 11.5844 14.9153 11.5386 14.3624C11.4929 13.8072 11.4629 13.7776 10.9458 13.7776C10.4287 13.7776 10.3987 13.8072 10.353 14.3624L10.3046 14.9471H10.9365H11.5682V15.5708C11.5682 16.1782 11.5824 16.1946 12.106 16.1946H12.6437L12.6895 17.3251L12.7352 18.4556H15.6138H18.4925L18.5348 15.5319L18.5771 12.6081H17.416H16.2551L16.2067 12.0234C16.1634 11.499 16.1097 11.4338 15.686 11.3923C15.4262 11.3667 15.1637 11.396 15.1025 11.4572ZM3.3901 13.901C3.34342 14.0227 3.32646 14.571 3.35229 15.1194L3.39913 16.1166H3.94373H4.48834V14.9471V13.7776L3.98154 13.7286C3.65167 13.6968 3.44519 13.757 3.3901 13.901ZM17.3255 15.5708V17.2861H15.6138H13.9022V15.5708V13.8556H15.6138H17.3255V15.5708ZM15.021 15.5319C15.0668 16.087 15.0968 16.1166 15.6138 16.1166C16.1309 16.1166 16.1609 16.087 16.2067 15.5319L16.2551 14.9471H15.6138H14.9726L15.021 15.5319ZM0.987305 18.5336V20.8726H3.32133H5.65535V20.2489V19.6251H3.94373H2.23212V17.9099V16.1946H1.60971H0.987305V18.5336ZM19.6595 17.9099V19.6251H17.9479H16.2363V20.2489V20.8726H18.5703H20.9043V18.5336V16.1946H20.2819H19.6595V17.9099Z" fill="#012433"/>
</svg>
