<svg width="19" height="20" viewBox="0 0 19 20" fill="none" xmlns="http://www.w3.org/2000/svg">
<path fill-rule="evenodd" clip-rule="evenodd" d="M5.32772 0.984617C4.24972 1.18306 3.0534 1.92136 2.28047 2.86508C0.62188 4.89029 0.235674 8.09458 1.35887 10.5118C1.85921 11.5885 2.09968 11.8564 5.70393 15.3518C7.65106 17.2401 9.3364 18.8574 9.44922 18.9458C9.61766 19.0777 9.68741 19.0883 9.83954 19.0049C9.94147 18.9492 11.6461 17.3296 13.6276 15.406C17.4863 11.66 17.6378 11.4856 18.145 10.2058C18.5247 9.24804 18.6442 8.58233 18.6445 7.42392C18.6449 5.87914 18.3298 4.73221 17.5601 3.47718C16.8902 2.38465 15.6711 1.42716 14.5356 1.10146C13.8653 0.909109 12.6388 0.907519 11.9766 1.09801C11.374 1.27146 10.5517 1.72354 10.0613 2.15115L9.70247 2.46387L9.28959 2.12801C8.08665 1.14985 6.66265 0.73884 5.32772 0.984617ZM7.18923 2.17058C7.83171 2.36681 8.6028 2.84927 9.08565 3.35699C9.34103 3.62555 9.57959 3.80306 9.68505 3.80306C9.79052 3.80306 10.0291 3.62555 10.2845 3.35699C11.3888 2.19575 12.9317 1.76566 14.3878 2.21315C15.9476 2.69252 17.2185 4.23597 17.6212 6.13984C17.7631 6.81032 17.7622 8.012 17.6196 8.73953C17.4852 9.42476 17.0782 10.3801 16.7017 10.894C16.4557 11.2299 9.89047 17.6699 9.72202 17.7406C9.62141 17.7828 2.86673 11.1955 2.61244 10.8072C1.57663 9.22535 1.34821 7.03243 2.02876 5.20425C2.57018 3.7499 3.77011 2.55351 5.06513 2.17676C5.64205 2.00897 6.6506 2.00605 7.18923 2.17058Z" fill="#012433"/>
</svg>
